<svg width="22" height="22" viewBox="0 0 22 22" fill="none" xmlns="http://www.w3.org/2000/svg">
<path fill-rule="evenodd" clip-rule="evenodd" d="M2.8798 2.7567C2.79028 2.74996 2.66604 2.74935 2.43306 2.74935H0.916667C0.410406 2.74935 0 2.33895 0 1.83269C0 1.32643 0.410406 0.91602 0.916667 0.91602H2.43306C2.4417 0.91602 2.45034 0.916019 2.45898 0.916018C2.65575 0.915993 2.85058 0.91597 3.01755 0.92855C3.20335 0.942549 3.41921 0.975431 3.64252 1.07504C3.9568 1.21523 4.22528 1.44105 4.41724 1.72666C4.55364 1.9296 4.62303 2.13664 4.66865 2.31729C4.70966 2.47963 4.74301 2.67158 4.77671 2.86545C4.77818 2.87396 4.77966 2.88247 4.78115 2.89099L4.99956 4.14689L16.9291 4.50001C17.3965 4.51384 17.8005 4.52578 18.1332 4.56242C18.4849 4.60115 18.8336 4.67398 19.168 4.85216C19.6748 5.12216 20.0844 5.54402 20.3393 6.05858C20.5075 6.39817 20.5699 6.74882 20.5982 7.10148C20.625 7.43513 20.625 7.83929 20.625 8.30697V8.37457C20.625 8.81409 20.625 9.19534 20.6004 9.5115C20.5743 9.84677 20.5167 10.1798 20.3631 10.5061C20.1293 11.0027 19.7523 11.4181 19.2804 11.6986C18.9704 11.8829 18.6445 11.9723 18.3133 12.0306C18.001 12.0856 17.6216 12.1223 17.1841 12.1646L8.26136 13.0281C7.81293 13.0715 7.4244 13.1091 7.10024 13.1148C6.75679 13.1208 6.41246 13.0942 6.06676 12.9672C5.54832 12.7767 5.09924 12.4346 4.778 11.9853C4.5638 11.6857 4.44668 11.3608 4.36134 11.0281C4.28079 10.714 4.21392 10.3295 4.13675 9.88561L2.97492 3.20512C2.935 2.97558 2.91312 2.85328 2.89114 2.76623C2.89036 2.76314 2.8896 2.76021 2.88887 2.75742C2.88601 2.75718 2.88298 2.75694 2.8798 2.7567ZM5.32019 5.99052L5.93719 9.53827C6.02181 10.0248 6.07681 10.3372 6.13719 10.5726C6.19478 10.7971 6.24033 10.8784 6.26935 10.919C6.37643 11.0688 6.52612 11.1828 6.69894 11.2463C6.74577 11.2635 6.83624 11.2858 7.06799 11.2818C7.31098 11.2775 7.62676 11.2476 8.11829 11.2L16.9745 10.343C17.4543 10.2965 17.762 10.2661 17.9956 10.225C18.2181 10.1859 18.3011 10.148 18.3435 10.1228C18.5008 10.0293 18.6264 9.89083 18.7044 9.72528C18.7254 9.68069 18.7551 9.59438 18.7726 9.36916C18.791 9.13273 18.7917 8.82353 18.7917 8.34148C18.7917 7.82952 18.791 7.49965 18.7708 7.24818C18.7515 7.00755 18.7187 6.91734 18.6964 6.87234C18.6115 6.70082 18.4749 6.5602 18.306 6.4702C18.2617 6.44659 18.1725 6.41116 17.9325 6.38474C17.6818 6.35712 17.3521 6.34667 16.8403 6.33153L5.32019 5.99052Z" fill="#424551"/>
<path fill-rule="evenodd" clip-rule="evenodd" d="M7.79167 16.041C7.28541 16.041 6.875 16.4514 6.875 16.9577C6.875 17.4639 7.28541 17.8743 7.79167 17.8743C8.29793 17.8743 8.70833 17.4639 8.70833 16.9577C8.70833 16.4514 8.29793 16.041 7.79167 16.041ZM5.04167 16.9577C5.04167 15.4389 6.27288 14.2077 7.79167 14.2077C9.31045 14.2077 10.5417 15.4389 10.5417 16.9577C10.5417 18.4765 9.31045 19.7077 7.79167 19.7077C6.27288 19.7077 5.04167 18.4765 5.04167 16.9577Z" fill="#424551"/>
<path fill-rule="evenodd" clip-rule="evenodd" d="M16.5 16.041C15.9937 16.041 15.5833 16.4514 15.5833 16.9577C15.5833 17.4639 15.9937 17.8743 16.5 17.8743C17.0063 17.8743 17.4167 17.4639 17.4167 16.9577C17.4167 16.4514 17.0063 16.041 16.5 16.041ZM13.75 16.9577C13.75 15.4389 14.9812 14.2077 16.5 14.2077C18.0188 14.2077 19.25 15.4389 19.25 16.9577C19.25 18.4765 18.0188 19.7077 16.5 19.7077C14.9812 19.7077 13.75 18.4765 13.75 16.9577Z" fill="#424551"/>
</svg>
