<svg width="20" height="20" viewBox="0 0 20 20" fill="none" xmlns="http://www.w3.org/2000/svg">
<path d="M10.832 5.41732C10.832 4.95708 10.4589 4.58398 9.9987 4.58398C9.53846 4.58398 9.16536 4.95708 9.16536 5.41732V10.0007C9.16536 10.2217 9.25316 10.4336 9.40944 10.5899L11.9094 13.0899C12.2349 13.4153 12.7625 13.4153 13.088 13.0899C13.4134 12.7645 13.4134 12.2368 13.088 11.9114L10.832 9.65547V5.41732Z" fill="#17696A"/>
<path fill-rule="evenodd" clip-rule="evenodd" d="M9.9987 0.833984C4.93609 0.833984 0.832031 4.93804 0.832031 10.0007C0.832031 15.0633 4.93609 19.1673 9.9987 19.1673C15.0613 19.1673 19.1654 15.0633 19.1654 10.0007C19.1654 4.93804 15.0613 0.833984 9.9987 0.833984ZM2.4987 10.0007C2.4987 5.85851 5.85656 2.50065 9.9987 2.50065C14.1408 2.50065 17.4987 5.85851 17.4987 10.0007C17.4987 14.1428 14.1408 17.5006 9.9987 17.5006C5.85656 17.5006 2.4987 14.1428 2.4987 10.0007Z" fill="#17696A"/>
</svg>
