<svg width="42" height="48" viewBox="0 0 42 48" fill="none" xmlns="http://www.w3.org/2000/svg">
<path d="M0.375 45.0048V47.0625C0.375 47.5803 0.794678 48 1.3125 48H40.6875C41.2053 48 41.625 47.5803 41.625 47.0625V45.0029C41.625 41.2745 39.5306 37.8289 35.6547 36.4142C37.0554 35.1907 37.9069 33.3984 37.9069 31.4604C37.9069 30.943 37.4872 30.5229 36.9694 30.5229C34.7142 30.5229 32.8136 28.9281 32.3558 26.8125H35.0654C36.6145 26.8125 37.875 25.5509 37.875 24V19.6875C37.875 18.4647 37.0909 17.4221 36 17.0358V15C36 6.72913 29.2723 0 21.0029 0C12.7145 0 6 6.70789 6 15V17.0372C4.90906 17.425 4.125 18.4673 4.125 19.6875V24C4.125 25.5509 5.38806 26.8125 6.94043 26.8125H9.64417C9.18713 28.9281 7.28833 30.5229 5.0354 30.5229C4.51758 30.5229 4.0979 30.943 4.0979 31.4604C4.0979 33.401 4.95154 35.1951 6.35596 36.4193C2.495 37.8351 0.375 41.3156 0.375 45.0048ZM35.9528 32.3196C35.6609 33.8917 34.5791 35.2262 33.0674 35.8257L27.3878 35.0881L26.781 32.7166C28.5516 31.6578 29.9626 30.1619 30.9082 28.4059C31.7904 30.4501 33.6852 31.9662 35.9528 32.3196ZM28.5168 16.875C25.927 16.875 23.8198 14.7415 23.8198 12.119C23.8198 11.6012 23.4001 11.1815 22.8823 11.1815C22.3649 11.1815 21.9448 11.6012 21.9448 12.119C21.9448 14.7415 19.8376 16.875 17.2471 16.875H11.6279C11.6279 11.7056 15.8335 7.5 21.0029 7.5C26.1823 7.5 30.3779 11.6917 30.3779 16.875H28.5168ZM11.625 18.75H17.2471C19.6362 18.75 21.7317 17.4576 22.8823 15.5292C24.033 17.4576 26.1281 18.75 28.5168 18.75H30.375V23.0625C30.375 26.6085 28.411 29.8118 25.2499 31.422C23.9271 32.0958 22.4982 32.4375 21.0029 32.4375C19.5117 32.4375 18.0872 32.0984 16.7681 31.4297C15.8829 30.9811 15.0769 30.3966 14.3719 29.6913C12.6006 27.921 11.625 25.5667 11.625 23.0625V18.75ZM16.9611 33.5647C18.2446 34.0605 19.5996 34.3125 21.0029 34.3125C22.4117 34.3125 23.7719 34.0583 25.0609 33.5574L25.656 35.8846C25.3436 38.2057 23.3745 39.9375 21.0121 39.9375C18.65 39.9375 16.6809 38.2064 16.3678 35.8861L16.9611 33.5647ZM36 24C36 24.5171 35.5807 24.9375 35.0654 24.9375H32.25V18.75H35.0654C35.5807 18.75 36 19.1704 36 19.6875V24ZM21.0029 1.875C28.2385 1.875 34.125 7.76294 34.125 15V16.875H32.2529C32.2529 10.6593 27.2223 5.625 21.0029 5.625C14.7997 5.625 9.75293 10.6718 9.75293 16.875H7.875V15C7.875 7.74829 13.7472 1.875 21.0029 1.875ZM6 24V19.6875C6 19.1715 6.42114 18.7511 6.94043 18.75H9.75V24.9375H6.94043C6.42188 24.9375 6 24.5171 6 24ZM11.0933 28.4033C11.6071 29.3525 12.2611 30.2329 13.0463 31.0173C13.7069 31.6783 14.4434 32.2496 15.2402 32.7253L14.6364 35.0885L8.94104 35.8275C7.42749 35.2277 6.34424 33.8925 6.052 32.3196C8.31885 31.9658 10.2125 30.4482 11.0933 28.4033ZM8.8418 37.7307L8.94507 37.7175H8.9458C8.94653 37.7172 8.94727 37.7172 8.948 37.7172L14.6781 36.9738C15.4373 39.7947 17.9956 41.8125 21.0121 41.8125C24.0286 41.8125 26.5865 39.7947 27.3453 36.9734C27.631 37.0107 25.8402 36.7782 33.1813 37.7311C37.2913 38.265 39.75 41.3452 39.75 45.0029V46.125H2.25V45.0048C2.25 41.4155 4.70728 38.2676 8.8418 37.7307Z" fill="#17696A"/>
</svg>
