<svg width="20" height="20" viewBox="0 0 20 20" fill="none" xmlns="http://www.w3.org/2000/svg">
<path fill-rule="evenodd" clip-rule="evenodd" d="M6.04102 3.12435C6.04102 1.97376 6.97376 1.04102 8.12435 1.04102H11.8743C13.0249 1.04102 13.9577 1.97376 13.9577 3.12435V3.54102H18.1243C18.5846 3.54102 18.9577 3.91411 18.9577 4.37435C18.9577 4.83459 18.5846 5.20768 18.1243 5.20768H17.0827V15.6243C17.0827 17.4653 15.5903 18.9577 13.7493 18.9577H6.24935C4.4084 18.9577 2.91602 17.4653 2.91602 15.6243V5.20768H1.87435C1.41411 5.20768 1.04102 4.83459 1.04102 4.37435C1.04102 3.91411 1.41411 3.54102 1.87435 3.54102H6.04102V3.12435ZM7.70768 3.54102H12.291V3.12435C12.291 2.89423 12.1045 2.70768 11.8743 2.70768H8.12435C7.89423 2.70768 7.70768 2.89423 7.70768 3.12435V3.54102ZM4.58268 5.20768V15.6243C4.58268 16.5448 5.32887 17.291 6.24935 17.291H13.7493C14.6698 17.291 15.416 16.5448 15.416 15.6243V5.20768H4.58268ZM9.99935 6.66602C10.4596 6.66602 10.8327 7.03911 10.8327 7.49935L10.8327 14.9993C10.8327 15.4596 10.4596 15.8327 9.99935 15.8327C9.53911 15.8327 9.16602 15.4596 9.16602 14.9993L9.16602 7.49935C9.16602 7.03911 9.53911 6.66602 9.99935 6.66602Z" fill="#FF4242"/>
</svg>
