<svg width="19" height="16" viewBox="0 0 19 16" fill="none" xmlns="http://www.w3.org/2000/svg">
<path d="M2.20118 5.09822C4.45461 3.21822 7.04885 2.16667 9.79234 2.16667C12.5358 2.16667 15.1301 3.21822 17.3835 5.09822C17.7369 5.39305 18.2624 5.34558 18.5572 4.99218C18.8521 4.63878 18.8046 4.11328 18.4512 3.81845C15.9455 1.72796 12.9835 0.5 9.79234 0.5C6.60113 0.5 3.63922 1.72796 1.13349 3.81845C0.780094 4.11328 0.732618 4.63878 1.02745 4.99218C1.32229 5.34558 1.84778 5.39305 2.20118 5.09822Z" fill="#424551"/>
<path fill-rule="evenodd" clip-rule="evenodd" d="M3.41797 6.07419C4.91674 4.80886 7.05435 3.625 9.47982 3.625C11.9053 3.625 14.0429 4.80886 15.5417 6.07419C16.2972 6.71204 16.9166 7.39204 17.3544 7.99941C17.5729 8.30249 17.755 8.5999 17.8862 8.87564C18.0066 9.12893 18.1257 9.44858 18.1257 9.77083C18.1257 10.0931 18.0066 10.4127 17.8862 10.666C17.755 10.9418 17.5729 11.2392 17.3544 11.5423C16.9166 12.1496 16.2972 12.8296 15.5417 13.4675C14.0429 14.7328 11.9053 15.9167 9.47982 15.9167C7.05435 15.9167 4.91674 14.7328 3.41797 13.4675C2.66244 12.8296 2.04299 12.1496 1.60523 11.5423C1.38678 11.2392 1.2046 10.9418 1.07347 10.666C0.953018 10.4127 0.833984 10.0931 0.833984 9.77083C0.833984 9.44858 0.953018 9.12893 1.07347 8.87564C1.2046 8.5999 1.38678 8.30249 1.60523 7.99941C2.04299 7.39204 2.66244 6.71204 3.41797 6.07419ZM2.50656 9.77083C2.51499 9.79905 2.53444 9.85737 2.57861 9.95026C2.65562 10.1122 2.78041 10.3223 2.9573 10.5677C3.31021 11.0574 3.83487 11.6382 4.49312 12.194C5.82192 13.3158 7.59056 14.25 9.47982 14.25C11.3691 14.25 13.1377 13.3158 14.4665 12.194C15.1248 11.6382 15.6494 11.0574 16.0023 10.5677C16.1792 10.3223 16.304 10.1122 16.381 9.95026C16.4252 9.85738 16.4446 9.79905 16.4531 9.77083C16.4446 9.74261 16.4252 9.68429 16.381 9.59141C16.304 9.42947 16.1792 9.21934 16.0023 8.97392C15.6494 8.48428 15.1248 7.90343 14.4665 7.3477C14.187 7.11173 13.8881 6.88407 13.5726 6.67166C13.6884 7.05945 13.7507 7.47038 13.7507 7.89583C13.7507 10.2545 11.8385 12.1667 9.47982 12.1667C7.1211 12.1667 5.20898 10.2545 5.20898 7.89583C5.20898 7.47038 5.2712 7.05945 5.38702 6.67166C5.07157 6.88407 4.77262 7.11174 4.49312 7.3477C3.83487 7.90343 3.31021 8.48428 2.9573 8.97392C2.78041 9.21934 2.65562 9.42947 2.57861 9.59141C2.53444 9.68429 2.51499 9.74261 2.50656 9.77083ZM6.87565 7.89583C6.87565 6.45759 8.04158 5.29167 9.47982 5.29167C10.9181 5.29167 12.084 6.45759 12.084 7.89583C12.084 9.33407 10.9181 10.5 9.47982 10.5C8.04158 10.5 6.87565 9.33407 6.87565 7.89583Z" fill="#424551"/>
</svg>
