<svg width="48" height="36" viewBox="0 0 48 36" fill="none" xmlns="http://www.w3.org/2000/svg">
<path d="M44.0596 17.1226L42.4431 10.6567C43.0177 10.1071 43.3125 9.37793 43.3125 8.625C43.3125 7.0741 42.0509 5.8125 40.5 5.8125H33V3C33 1.4491 31.7384 0.1875 30.1875 0.1875H2.8125C1.2616 0.1875 0 1.4491 0 3V27.375C0 28.9259 1.2616 30.1875 2.8125 30.1875H6.1875C6.1875 33.2893 8.71069 35.8125 11.8125 35.8125C14.9143 35.8125 17.4375 33.2893 17.4375 30.1875H34.875C34.875 33.2893 37.3982 35.8125 40.5 35.8125C43.6018 35.8125 46.125 33.2893 46.125 30.1875C46.125 30.134 46.1224 30.0809 46.121 30.0275C47.2141 29.6418 48 28.5985 48 27.375V21.75C48 19.4194 46.2905 17.4814 44.0596 17.1226ZM40.7054 11.4375L42.1117 17.0625H34.3257L36.4753 14.9128C36.8416 14.5466 36.8416 13.9534 36.4753 13.5872C36.1091 13.2209 35.5159 13.2209 35.1497 13.5872L33 15.7365V11.4375H40.7054ZM41.4375 8.625C41.4375 9.14246 41.0175 9.5625 40.5 9.5625H33V7.6875H40.5C41.0171 7.6875 41.4375 8.10791 41.4375 8.625ZM11.8125 33.9375C9.74487 33.9375 8.0625 32.2551 8.0625 30.1875C8.0625 28.0917 9.77527 26.4375 11.8125 26.4375C13.8545 26.4375 15.5625 28.0961 15.5625 30.1875C15.5625 32.2551 13.8801 33.9375 11.8125 33.9375ZM17.1156 28.3125C16.3326 26.1002 14.2134 24.5625 11.8125 24.5625C9.41052 24.5625 7.29053 26.1013 6.50903 28.3125H2.8125C2.29541 28.3125 1.875 27.8921 1.875 27.375V3C1.875 2.48291 2.29541 2.0625 2.8125 2.0625H30.1875C30.7046 2.0625 31.125 2.48291 31.125 3V28.3125H17.1156ZM40.5 33.9375C38.4324 33.9375 36.75 32.2551 36.75 30.1875C36.75 28.0917 38.4628 26.4375 40.5 26.4375C42.542 26.4375 44.25 28.0961 44.25 30.1875C44.25 32.2551 42.5676 33.9375 40.5 33.9375ZM45.7365 28.1334C44.9048 26.0175 42.8357 24.5625 40.5 24.5625C38.098 24.5625 35.978 26.1013 35.1965 28.3125H33V18.9375H43.3125C44.5345 18.9375 45.5768 19.7212 45.9639 20.8125H43.3125C42.7947 20.8125 42.375 21.2322 42.375 21.75C42.375 22.2678 42.7947 22.6875 43.3125 22.6875H46.125V27.375C46.125 27.6866 45.9712 27.9628 45.7365 28.1334Z" fill="#17696A"/>
</svg>
