<svg width="20" height="12" viewBox="0 0 20 12" fill="none" xmlns="http://www.w3.org/2000/svg">
<path d="M20 0H0V12H20V0Z" fill="#B22234"/>
<path fill-rule="evenodd" clip-rule="evenodd" d="M20 1.74624H0V0.800781H20V1.74624ZM0 2.69169H20V3.63714H0V2.69169ZM20 5.52805H0V4.5826H20V5.52805ZM0 6.47351H20V7.41896H0V6.47351ZM20 9.30987H0V8.36442H20V9.30987ZM0 10.2553H20V11.2008H0V10.2553Z" fill="white"/>
<path d="M9.12 0H0V6.46154H9.12V0Z" fill="#3C3B6E"/>
<path d="M0.759362 0.220703L0.976391 0.888648L0.408203 0.475835H1.11052L0.542334 0.888648L0.759362 0.220703Z" fill="white"/>
<path d="M2.274 0.220703L2.49103 0.888648L1.92284 0.475835H2.62516L2.05697 0.888648L2.274 0.220703Z" fill="white"/>
<path d="M3.78864 0.220703L4.00567 0.888648L3.43748 0.475835H4.1398L3.57161 0.888648L3.78864 0.220703Z" fill="white"/>
<path d="M8.33256 0.220703L8.54959 0.888648L7.9814 0.475835H8.68372L8.11553 0.888648L8.33256 0.220703Z" fill="white"/>
<path d="M6.81792 0.220703L7.03495 0.888648L6.46676 0.475835H7.16908L6.60089 0.888648L6.81792 0.220703Z" fill="white"/>
<path d="M5.30328 0.220703L5.52031 0.888648L4.95212 0.475835H5.65444L5.08625 0.888648L5.30328 0.220703Z" fill="white"/>
<path d="M0.759362 1.5566L0.976391 2.22455L0.408203 1.81174H1.11052L0.542334 2.22455L0.759362 1.5566Z" fill="white"/>
<path d="M2.274 1.5566L2.49103 2.22455L1.92284 1.81174H2.62516L2.05697 2.22455L2.274 1.5566Z" fill="white"/>
<path d="M3.78864 1.5566L4.00567 2.22455L3.43748 1.81174H4.1398L3.57161 2.22455L3.78864 1.5566Z" fill="white"/>
<path d="M8.33256 1.5566L8.54959 2.22455L7.9814 1.81174H8.68372L8.11553 2.22455L8.33256 1.5566Z" fill="white"/>
<path d="M6.81792 1.5566L7.03495 2.22455L6.46676 1.81174H7.16908L6.60089 2.22455L6.81792 1.5566Z" fill="white"/>
<path d="M5.30328 1.5566L5.52031 2.22455L4.95212 1.81174H5.65444L5.08625 2.22455L5.30328 1.5566Z" fill="white"/>
<path d="M0.759362 2.89251L0.976391 3.56045L0.408203 3.14764H1.11052L0.542334 3.56045L0.759362 2.89251Z" fill="white"/>
<path d="M2.274 2.89251L2.49103 3.56045L1.92284 3.14764H2.62516L2.05697 3.56045L2.274 2.89251Z" fill="white"/>
<path d="M3.78864 2.89251L4.00567 3.56045L3.43748 3.14764H4.1398L3.57161 3.56045L3.78864 2.89251Z" fill="white"/>
<path d="M8.33256 2.89251L8.54959 3.56045L7.9814 3.14764H8.68372L8.11553 3.56045L8.33256 2.89251Z" fill="white"/>
<path d="M6.81792 2.89251L7.03495 3.56045L6.46676 3.14764H7.16908L6.60089 3.56045L6.81792 2.89251Z" fill="white"/>
<path d="M5.30328 2.89251L5.52031 3.56045L4.95212 3.14764H5.65444L5.08625 3.56045L5.30328 2.89251Z" fill="white"/>
<path d="M0.759362 4.22841L0.976391 4.89635L0.408203 4.48354H1.11052L0.542334 4.89635L0.759362 4.22841Z" fill="white"/>
<path d="M2.274 4.22841L2.49103 4.89635L1.92284 4.48354H2.62516L2.05697 4.89635L2.274 4.22841Z" fill="white"/>
<path d="M3.78864 4.22841L4.00567 4.89635L3.43748 4.48354H4.1398L3.57161 4.89635L3.78864 4.22841Z" fill="white"/>
<path d="M8.33256 4.22841L8.54959 4.89635L7.9814 4.48354H8.68372L8.11553 4.89635L8.33256 4.22841Z" fill="white"/>
<path d="M6.81792 4.22841L7.03495 4.89635L6.46676 4.48354H7.16908L6.60089 4.89635L6.81792 4.22841Z" fill="white"/>
<path d="M5.30328 4.22841L5.52031 4.89635L4.95212 4.48354H5.65444L5.08625 4.89635L5.30328 4.22841Z" fill="white"/>
<path d="M0.759362 5.56431L0.976391 6.23225L0.408203 5.81944H1.11052L0.542334 6.23225L0.759362 5.56431Z" fill="white"/>
<path d="M2.274 5.56431L2.49103 6.23225L1.92284 5.81944H2.62516L2.05697 6.23225L2.274 5.56431Z" fill="white"/>
<path d="M3.78864 5.56431L4.00567 6.23225L3.43748 5.81944H4.1398L3.57161 6.23225L3.78864 5.56431Z" fill="white"/>
<path d="M8.33256 5.56431L8.54959 6.23225L7.9814 5.81944H8.68372L8.11553 6.23225L8.33256 5.56431Z" fill="white"/>
<path d="M6.81792 5.56431L7.03495 6.23225L6.46676 5.81944H7.16908L6.60089 6.23225L6.81792 5.56431Z" fill="white"/>
<path d="M5.30328 5.56431L5.52031 6.23225L4.95212 5.81944H5.65444L5.08625 6.23225L5.30328 5.56431Z" fill="white"/>
<path d="M1.51358 0.888654L1.73061 1.5566L1.16242 1.14379H1.86474L1.29655 1.5566L1.51358 0.888654Z" fill="white"/>
<path d="M3.02822 0.888654L3.24525 1.5566L2.67706 1.14379H3.37938L2.81119 1.5566L3.02822 0.888654Z" fill="white"/>
<path d="M4.54286 0.888654L4.75989 1.5566L4.1917 1.14379H4.89402L4.32583 1.5566L4.54286 0.888654Z" fill="white"/>
<path d="M7.57214 0.888654L7.78917 1.5566L7.22098 1.14379H7.9233L7.35511 1.5566L7.57214 0.888654Z" fill="white"/>
<path d="M6.0575 0.888654L6.27453 1.5566L5.70634 1.14379H6.40866L5.84047 1.5566L6.0575 0.888654Z" fill="white"/>
<path d="M1.51358 2.22456L1.73061 2.8925L1.16242 2.47969H1.86474L1.29655 2.8925L1.51358 2.22456Z" fill="white"/>
<path d="M3.02822 2.22456L3.24525 2.8925L2.67706 2.47969H3.37938L2.81119 2.8925L3.02822 2.22456Z" fill="white"/>
<path d="M4.54286 2.22456L4.75989 2.8925L4.1917 2.47969H4.89402L4.32583 2.8925L4.54286 2.22456Z" fill="white"/>
<path d="M7.57214 2.22456L7.78917 2.8925L7.22098 2.47969H7.9233L7.35511 2.8925L7.57214 2.22456Z" fill="white"/>
<path d="M6.0575 2.22456L6.27453 2.8925L5.70634 2.47969H6.40866L5.84047 2.8925L6.0575 2.22456Z" fill="white"/>
<path d="M1.51358 3.56046L1.73061 4.2284L1.16242 3.81559H1.86474L1.29655 4.2284L1.51358 3.56046Z" fill="white"/>
<path d="M3.02822 3.56046L3.24525 4.2284L2.67706 3.81559H3.37938L2.81119 4.2284L3.02822 3.56046Z" fill="white"/>
<path d="M4.54286 3.56046L4.75989 4.2284L4.1917 3.81559H4.89402L4.32583 4.2284L4.54286 3.56046Z" fill="white"/>
<path d="M7.57214 3.56046L7.78917 4.2284L7.22098 3.81559H7.9233L7.35511 4.2284L7.57214 3.56046Z" fill="white"/>
<path d="M6.0575 3.56046L6.27453 4.2284L5.70634 3.81559H6.40866L5.84047 4.2284L6.0575 3.56046Z" fill="white"/>
<path d="M1.51358 4.89636L1.73061 5.5643L1.16242 5.15149H1.86474L1.29655 5.5643L1.51358 4.89636Z" fill="white"/>
<path d="M3.02822 4.89636L3.24525 5.5643L2.67706 5.15149H3.37938L2.81119 5.5643L3.02822 4.89636Z" fill="white"/>
<path d="M4.54286 4.89636L4.75989 5.5643L4.1917 5.15149H4.89402L4.32583 5.5643L4.54286 4.89636Z" fill="white"/>
<path d="M7.57214 4.89636L7.78917 5.5643L7.22098 5.15149H7.9233L7.35511 5.5643L7.57214 4.89636Z" fill="white"/>
<path d="M6.0575 4.89636L6.27453 5.5643L5.70634 5.15149H6.40866L5.84047 5.5643L6.0575 4.89636Z" fill="white"/>
</svg>
