<svg width="20" height="20" viewBox="0 0 20 20" fill="none" xmlns="http://www.w3.org/2000/svg">
<path fill-rule="evenodd" clip-rule="evenodd" d="M9.99907 16.5894C6.16651 14.4065 4.02897 12.2369 2.99533 10.3545C1.9374 8.42785 2.02971 6.80512 2.61675 5.65342C3.8234 3.28614 7.25473 2.52916 9.34537 5.17331L9.99902 6.00002L10.6527 5.17335C12.7437 2.52909 16.1752 3.2862 17.3819 5.65342C17.9689 6.80511 18.0612 8.42782 17.0032 10.3545C15.9694 12.2369 13.8318 14.4065 9.99907 16.5894ZM9.9991 3.42157C7.05809 0.626898 2.71943 1.78193 1.13186 4.89654C0.260575 6.60588 0.248673 8.81515 1.53441 11.1567C2.80875 13.4775 5.3495 15.9271 9.59594 18.2742L9.99905 18.497L10.4022 18.2742C14.6488 15.9271 17.1896 13.4775 18.4641 11.1567C19.7499 8.81518 19.738 6.6059 18.8667 4.89654C17.2791 1.78187 12.9404 0.62694 9.9991 3.42157Z" fill="#424551"/>
</svg>
