<svg width="14" height="15" viewBox="0 0 14 15" fill="none" xmlns="http://www.w3.org/2000/svg">
<path fill-rule="evenodd" clip-rule="evenodd" d="M7.52152 2.28175C7.17922 2.18907 6.81843 2.18907 6.47613 2.28175C6.11977 2.37824 5.77418 2.63102 4.78864 3.39755L3.05531 4.7457C2.42101 5.23904 2.20806 5.41201 2.05752 5.61554C1.91286 5.81113 1.8051 6.03146 1.73952 6.26573C1.67129 6.50951 1.66549 6.7838 1.66549 7.58737V12.0006C1.66549 12.5143 1.67273 12.6234 1.6942 12.6941C1.75883 12.9072 1.92557 13.0739 2.13864 13.1386C2.20942 13.16 2.31847 13.1673 2.83216 13.1673H3.24883C3.33412 13.1673 3.35265 13.1671 3.36487 13.1665C3.70734 13.1496 3.9812 12.8758 3.99802 12.5333C3.99863 12.5211 3.99883 12.5026 3.99883 12.4173V10.5006C3.99883 8.84376 5.34197 7.50061 6.99883 7.50061C8.65568 7.50061 9.99883 8.84375 9.99883 10.5006V12.4173C9.99883 12.5026 9.99903 12.5211 9.99963 12.5333C10.0165 12.8758 10.2903 13.1496 10.6328 13.1665C10.645 13.1671 10.6635 13.1673 10.7488 13.1673H11.1655C11.6792 13.1673 11.7882 13.16 11.859 13.1386C12.0721 13.0739 12.2388 12.9072 12.3035 12.6941C12.3249 12.6234 12.3322 12.5143 12.3322 12.0006V7.58737C12.3322 6.7838 12.3264 6.50951 12.2581 6.26573C12.1926 6.03146 12.0848 5.81113 11.9401 5.61554C11.7896 5.41201 11.5766 5.23904 10.9423 4.7457L9.20901 3.39755C8.22348 2.63102 7.87788 2.37824 7.52152 2.28175ZM6.12767 0.994756C6.69817 0.84029 7.29948 0.84029 7.86998 0.994756C8.51884 1.17044 9.08817 1.6137 9.91416 2.25679C9.95144 2.28581 9.98924 2.31525 10.0276 2.34508L11.7609 3.69323C11.7849 3.71186 11.8085 3.73024 11.8319 3.74837C12.3681 4.16514 12.739 4.45346 13.0121 4.82267C13.2532 5.14865 13.4328 5.51589 13.5421 5.90633C13.6659 6.34856 13.6657 6.81839 13.6655 7.49754C13.6655 7.52708 13.6655 7.55702 13.6655 7.58737V12.0006C13.6655 12.0288 13.6655 12.0568 13.6656 12.0845C13.666 12.4653 13.6664 12.7943 13.5794 13.0812C13.3855 13.7204 12.8853 14.2206 12.2461 14.4145C11.9592 14.5015 11.6302 14.5011 11.2494 14.5007C11.2217 14.5006 11.1937 14.5006 11.1655 14.5006L10.7349 14.5006C10.6714 14.5006 10.6169 14.5006 10.5674 14.4982C9.53995 14.4477 8.71838 13.6262 8.6679 12.5987C8.66547 12.5492 8.66548 12.4947 8.66549 12.4312L8.66549 10.5006C8.66549 9.58014 7.9193 8.83394 6.99883 8.83394C6.07835 8.83394 5.33216 9.58014 5.33216 10.5006L5.33216 12.4313C5.33218 12.4947 5.33219 12.5492 5.32975 12.5987C5.27928 13.6262 4.4577 14.4477 3.4303 14.4982C3.38074 14.5006 3.32623 14.5006 3.26279 14.5006L2.83216 14.5006C2.80392 14.5006 2.77596 14.5006 2.74828 14.5007C2.36743 14.5011 2.03849 14.5015 1.75159 14.4145C1.11239 14.2206 0.612181 13.7204 0.418281 13.0812C0.331252 12.7943 0.331643 12.4653 0.332095 12.0845C0.332128 12.0568 0.332162 12.0288 0.332162 12.0006V7.58737C0.332162 7.55702 0.332151 7.52708 0.332142 7.49753C0.331913 6.81839 0.331755 6.34856 0.455541 5.90633C0.564831 5.51589 0.744438 5.14865 0.98554 4.82267C1.25862 4.45346 1.62957 4.16514 2.1658 3.74837C2.18912 3.73024 2.21276 3.71186 2.23672 3.69323L3.97006 2.34508C4.00841 2.31525 4.04622 2.28581 4.0835 2.25678C4.90949 1.6137 5.47881 1.17044 6.12767 0.994756Z" fill="#424551"/>
</svg>
