<svg width="12" height="20" viewBox="0 0 12 20" fill="none" xmlns="http://www.w3.org/2000/svg">
<path fill-rule="evenodd" clip-rule="evenodd" d="M3.08464 2.43424C2.39428 2.43424 1.83464 2.99389 1.83464 3.68424V16.3145C1.83464 17.0048 2.39428 17.5645 3.08464 17.5645H8.91797C9.60833 17.5645 10.168 17.0048 10.168 16.3145V3.68424C10.168 2.99389 9.60833 2.43424 8.91797 2.43424H8.84849L8.64551 2.92129C8.51611 3.2318 8.2127 3.43406 7.8763 3.43406H4.1263C3.78991 3.43406 3.4865 3.2318 3.35709 2.92129L3.15412 2.43424H3.08464ZM0.167969 3.68424C0.167969 2.07341 1.47381 0.767578 3.08464 0.767578H8.91797C10.5288 0.767578 11.8346 2.07341 11.8346 3.68424V16.3145C11.8346 17.9253 10.5288 19.2311 8.91797 19.2311H3.08464C1.4738 19.2311 0.167969 17.9253 0.167969 16.3145V3.68424Z" fill="#17696A"/>
</svg>
