<svg width="18" height="15" viewBox="0 0 18 15" fill="none" xmlns="http://www.w3.org/2000/svg">
<path fill-rule="evenodd" clip-rule="evenodd" d="M17.9596 12.0006V2.83398C17.9596 1.45327 16.8403 0.333984 15.4596 0.333984L2.54297 0.333997C1.16226 0.333998 0.0429688 1.45329 0.0429688 2.834V12.0006C0.0429688 13.3814 1.16226 14.5006 2.54297 14.5006L15.4596 14.5006C16.8403 14.5006 17.9596 13.3814 17.9596 12.0006ZM16.293 4.71687V12.0006C16.293 12.4609 15.9199 12.834 15.4596 12.834H2.54297C2.08273 12.834 1.70964 12.4609 1.70964 12.0006L1.70964 4.71676L7.59561 8.71922C8.44401 9.29613 9.55876 9.29613 10.4072 8.71922L16.293 4.71687ZM16.2835 2.70783C16.2227 2.30745 15.877 2.00065 15.4596 2.00065L2.54297 2.00066C2.12566 2.00066 1.77999 2.30741 1.71914 2.70773L8.53279 7.34101C8.81559 7.53331 9.18718 7.53331 9.46998 7.34101L16.2835 2.70783Z" fill="#17696A"/>
</svg>
