<svg width="30" height="36" viewBox="0 0 30 36" fill="none" xmlns="http://www.w3.org/2000/svg">
<path d="M14.4527 34.9171C14.794 35.1497 15.2236 35.1328 15.5476 34.8926C24.0512 29.0182 29.0902 27.0853 29.0902 17.8773V5.581C29.0902 5.11701 28.7501 4.7226 28.2903 4.65375C23.7947 3.97955 19.4683 2.58319 15.4309 0.50347C15.1403 0.353689 14.7943 0.372732 14.5279 0.524344C10.502 2.59307 6.18951 3.98248 1.71006 4.65375C1.2503 4.7226 0.910156 5.11664 0.910156 5.581V17.8773C0.910156 27.1721 6.42911 29.4532 14.4527 34.9171ZM2.78883 6.38044C6.6955 5.72089 10.4734 4.53473 14.0513 2.84832V16.5937C14.0513 17.1115 14.4718 17.5312 14.9906 17.5312C15.5095 17.5312 15.93 17.1115 15.93 16.5937V2.83953C19.513 4.52997 23.2979 5.71942 27.2115 6.38044V17.8773C27.2115 25.4982 23.6347 27.1597 15.93 32.3602V24.0937C15.93 23.5759 15.5095 23.1562 14.9906 23.1562C14.4718 23.1562 14.0513 23.5759 14.0513 24.0937V32.3873C6.85255 27.6046 2.78883 25.5608 2.78883 17.8773V6.38044Z" fill="#17696A"/>
</svg>
