<svg width="40" height="48" viewBox="0 0 40 48" fill="none" xmlns="http://www.w3.org/2000/svg">
<path d="M19.4535 47.7318C19.6168 47.8482 19.8079 47.9064 19.9995 47.9064C20.191 47.9064 20.3822 47.8482 20.5455 47.7318C30.116 40.9089 39.7255 37.9151 39.7255 23.8764V6.49596C39.7255 6.00853 39.3509 5.6024 38.8643 5.56175L36.4228 5.35814C30.8253 4.89268 25.3184 3.05649 20.4974 0.0487979C20.1928 -0.141266 19.8061 -0.141266 19.5015 0.0487979C14.6801 3.05649 9.17326 4.89268 3.57579 5.3585L1.13462 5.56175C0.647704 5.6024 0.273438 6.00853 0.273438 6.49596V23.8764C0.273438 38.311 11.2325 41.8709 19.4535 47.7318ZM2.15211 7.35838L3.7321 7.22691C9.43452 6.7523 15.0456 4.92857 19.9995 1.94394C24.953 4.92857 30.5644 6.7523 36.2665 7.22691L37.8468 7.35838V23.8764C37.8468 36.5352 29.3954 39.2514 19.998 45.8216C11.7506 40.108 2.15211 36.8655 2.15211 23.8764V7.35838Z" fill="#17696A"/>
</svg>
