<svg width="16" height="18" viewBox="0 0 16 18" fill="none" xmlns="http://www.w3.org/2000/svg">
<path fill-rule="evenodd" clip-rule="evenodd" d="M8.0013 5.45768C7.08083 5.45768 6.33464 6.20387 6.33464 7.12435C6.33464 8.04482 7.08083 8.79102 8.0013 8.79102C8.92178 8.79102 9.66797 8.04482 9.66797 7.12435C9.66797 6.20387 8.92178 5.45768 8.0013 5.45768ZM4.66797 7.12435C4.66797 5.2834 6.16035 3.79102 8.0013 3.79102C9.84225 3.79102 11.3346 5.2834 11.3346 7.12435C11.3346 8.9653 9.84225 10.4577 8.0013 10.4577C6.16035 10.4577 4.66797 8.9653 4.66797 7.12435Z" fill="#17696A"/>
<path fill-rule="evenodd" clip-rule="evenodd" d="M8.0013 1.70768C4.98502 1.70768 2.58464 4.07107 2.58464 6.93204C2.58464 9.26439 3.98631 11.62 5.5185 13.4729C6.27068 14.3825 7.02499 15.1359 7.59169 15.662C7.74329 15.8027 7.88106 15.9268 8.0013 16.0328C8.12154 15.9268 8.25932 15.8027 8.41092 15.662C8.97762 15.1359 9.73193 14.3825 10.4841 13.4729C12.0163 11.62 13.418 9.26439 13.418 6.93204C13.418 4.07107 11.0176 1.70768 8.0013 1.70768ZM8.0013 17.1244C7.48561 17.779 7.48542 17.7788 7.48521 17.7786L7.48314 17.777L7.47839 17.7732L7.46225 17.7604C7.44857 17.7494 7.42913 17.7337 7.4043 17.7135C7.35466 17.673 7.28346 17.6141 7.19378 17.5381C7.01449 17.386 6.76091 17.1648 6.45779 16.8835C5.85262 16.3217 5.04443 15.5149 4.2341 14.535C2.64129 12.6089 0.917969 9.86835 0.917969 6.93204C0.917969 3.10188 4.11403 0.0410156 8.0013 0.0410156C11.8886 0.0410156 15.0846 3.10188 15.0846 6.93204C15.0846 9.86835 13.3613 12.6089 11.7685 14.535C10.9582 15.5149 10.15 16.3217 9.54481 16.8835C9.24169 17.1648 8.98812 17.386 8.80883 17.5381C8.71914 17.6141 8.64794 17.673 8.5983 17.7135C8.57348 17.7337 8.55404 17.7494 8.54036 17.7604L8.52421 17.7732L8.51947 17.777L8.51794 17.7782C8.51773 17.7784 8.51699 17.779 8.0013 17.1244ZM8.0013 17.1244L8.51699 17.779C8.2145 18.0173 7.78771 18.0169 7.48521 17.7786L8.0013 17.1244Z" fill="#17696A"/>
</svg>
