<svg width="20" height="20" viewBox="0 0 20 20" fill="none" xmlns="http://www.w3.org/2000/svg">
<path fill-rule="evenodd" clip-rule="evenodd" d="M9.99922 2.70768C8.38839 2.70768 7.08255 4.01352 7.08255 5.62435C7.08255 7.23518 8.38839 8.54102 9.99922 8.54102C11.61 8.54102 12.9159 7.23518 12.9159 5.62435C12.9159 4.01352 11.61 2.70768 9.99922 2.70768ZM5.41588 5.62435C5.41588 3.09304 7.46791 1.04102 9.99922 1.04102C12.5305 1.04102 14.5826 3.09304 14.5826 5.62435C14.5826 8.15565 12.5305 10.2077 9.99922 10.2077C7.46791 10.2077 5.41588 8.15565 5.41588 5.62435Z" fill="white"/>
<path fill-rule="evenodd" clip-rule="evenodd" d="M5.08594 12.7077C4.50817 12.7077 4.05658 12.989 3.87327 13.3932C3.61955 13.9526 3.3898 14.6187 3.33559 15.2503C3.31135 15.5327 3.42909 15.7408 3.59132 15.8416C4.44895 16.3743 6.43621 17.291 9.99922 17.291C13.5622 17.291 15.5495 16.3743 16.4071 15.8416C16.5693 15.7408 16.6871 15.5327 16.6628 15.2503C16.6086 14.6187 16.3789 13.9526 16.1252 13.3932C15.9419 12.989 15.4903 12.7077 14.9125 12.7077H5.08594ZM2.35541 12.7048C2.86203 11.5877 3.99331 11.041 5.08594 11.041H14.9125C16.0051 11.041 17.1364 11.5877 17.643 12.7048C17.934 13.3464 18.2463 14.2089 18.3234 15.1078C18.3937 15.9263 18.0535 16.7809 17.2866 17.2573C16.1586 17.958 13.8655 18.9577 9.99922 18.9577C6.13289 18.9577 3.8398 17.958 2.71185 17.2573C1.94497 16.7809 1.60477 15.9263 1.67502 15.1078C1.75217 14.2089 2.06442 13.3464 2.35541 12.7048Z" fill="white"/>
</svg>
