<svg width="16" height="16" viewBox="0 0 16 16" fill="none" xmlns="http://www.w3.org/2000/svg">
<path fill-rule="evenodd" clip-rule="evenodd" d="M7.25065 2.16732C4.4432 2.16732 2.16732 4.4432 2.16732 7.25065C2.16732 10.0581 4.4432 12.334 7.25065 12.334C8.65324 12.334 9.92209 11.7668 10.8425 10.8477C11.7647 9.92686 12.334 8.65587 12.334 7.25065C12.334 4.4432 10.0581 2.16732 7.25065 2.16732ZM0.833984 7.25065C0.833984 3.70682 3.70682 0.833984 7.25065 0.833984C10.7945 0.833984 13.6673 3.70682 13.6673 7.25065C13.6673 8.78346 13.1292 10.1915 12.2326 11.2949L14.9716 14.0288C15.2322 14.2889 15.2326 14.711 14.9725 14.9716C14.7124 15.2322 14.2903 15.2326 14.0297 14.9725L11.2893 12.2371C10.1868 13.131 8.78088 13.6673 7.25065 13.6673C3.70682 13.6673 0.833984 10.7945 0.833984 7.25065Z" fill="#424551"/>
</svg>
