<svg width="48" height="46" viewBox="0 0 48 46" fill="none" xmlns="http://www.w3.org/2000/svg">
<path d="M45.1875 17.375H41.8125C41.8125 14.2505 41.8125 6.39746 41.8125 3.3125C41.8125 1.7616 40.5509 0.5 39 0.5H2.8125C1.2616 0.5 0 1.7616 0 3.3125V25.8125C0 27.3634 1.2616 28.625 2.8125 28.625H6.1875V42.6875C6.1875 44.2384 7.4491 45.5 9 45.5H45.1875C46.7384 45.5 48 44.2384 48 42.6875V20.1875C48 18.6366 46.7384 17.375 45.1875 17.375ZM1.875 8H39.9375V11.75H1.875V8ZM2.8125 2.375H39C39.5171 2.375 39.9375 2.79541 39.9375 3.3125V6.125H1.875V3.3125C1.875 2.79541 2.29541 2.375 2.8125 2.375ZM2.8125 26.75C2.29541 26.75 1.875 26.3296 1.875 25.8125V13.625H39.9375V17.375H9C7.4491 17.375 6.1875 18.6366 6.1875 20.1875V26.75H2.8125ZM46.125 42.6875C46.125 43.2046 45.7046 43.625 45.1875 43.625H9C8.48291 43.625 8.0625 43.2046 8.0625 42.6875V20.1875C8.0625 19.6704 8.48291 19.25 9 19.25H45.1875C45.7046 19.25 46.125 19.6704 46.125 20.1875V42.6875Z" fill="#17696A"/>
</svg>
