<svg width="20" height="20" viewBox="0 0 20 20" fill="none" xmlns="http://www.w3.org/2000/svg">
<path fill-rule="evenodd" clip-rule="evenodd" d="M8.475 1.83533C9.05395 0.500204 10.9473 0.500203 11.5263 1.83533L13.2776 5.87408L17.6599 6.29166C19.1086 6.42971 19.6937 8.23043 18.6028 9.19363L15.3029 12.1073L16.26 16.4041C16.5764 17.8246 15.0446 18.9375 13.7914 18.1976L10.0007 15.9596L6.20986 18.1976C4.95671 18.9375 3.42493 17.8246 3.74131 16.4041L4.69836 12.1073L1.39847 9.19363C0.307603 8.23043 0.892692 6.42971 2.34138 6.29166L6.72366 5.87408L8.475 1.83533ZM11.752 6.53566L10.0007 2.4969L8.24931 6.53566C8.00835 7.09133 7.48433 7.47205 6.8814 7.5295L2.49912 7.94708L5.79901 10.8608C6.25302 11.2616 6.45318 11.8776 6.3215 12.4688L5.36445 16.7657L9.15524 14.5277C9.67679 14.2197 10.3245 14.2197 10.8461 14.5277L14.6369 16.7657L13.6798 12.4688C13.5481 11.8776 13.7483 11.2616 14.2023 10.8608L17.5022 7.94708L13.1199 7.5295C12.517 7.47205 11.993 7.09133 11.752 6.53566Z" fill="#424551"/>
</svg>
