<svg width="97" height="36" viewBox="0 0 97 36" fill="none" xmlns="http://www.w3.org/2000/svg">
<path d="M14.4319 30.8146H11.7095L10.2056 26.1235H5.01996L3.5939 30.8146H0.949219L6.08302 14.8492H9.2722L14.4319 30.8146ZM9.76484 24.1537L8.41657 19.9809C8.261 19.5663 8.00171 18.5555 7.61279 16.9745H7.56093C7.40536 17.6483 7.14608 18.6591 6.80901 19.9809L5.48667 24.1537H9.76484ZM27.6294 24.9054C27.6294 26.8751 27.0849 28.4043 26.0219 29.5447C25.0625 30.5555 23.8958 31.0738 22.4697 31.0738C20.9399 31.0738 19.8509 30.5295 19.1768 29.441V35.4799H16.6358V23.0652C16.6358 21.847 16.6099 20.5771 16.5321 19.2812H18.7879L18.9435 21.0954H18.9953C19.8509 19.7218 21.1474 19.022 22.8846 19.022C24.2328 19.022 25.3737 19.5663 26.2812 20.6289C27.1887 21.7434 27.6294 23.1689 27.6294 24.9054ZM25.0366 25.009C25.0366 23.8946 24.7773 22.9615 24.2847 22.2358C23.7402 21.4842 22.9883 21.0954 22.0548 21.0954C21.4326 21.0954 20.8621 21.3028 20.3436 21.7174C19.825 22.1321 19.4879 22.6764 19.3324 23.3762C19.2546 23.6354 19.2287 23.8946 19.2027 24.1537V26.0717C19.2027 26.901 19.462 27.6267 19.9806 28.1969C20.4991 28.7671 21.1733 29.0522 21.9771 29.0522C22.9364 29.0522 23.6883 28.6894 24.2328 27.9377C24.7773 27.212 25.0366 26.2272 25.0366 25.009ZM40.9047 24.9054C40.9047 26.8751 40.3602 28.4043 39.2972 29.5447C38.3378 30.5555 37.171 31.0738 35.745 31.0738C34.2152 31.0738 33.1262 30.5295 32.4521 29.441V35.4799H29.8852V23.0652C29.8852 21.847 29.8593 20.5771 29.7815 19.2812H32.0372L32.1928 21.0954H32.2447C33.1003 19.7218 34.3967 19.022 36.1339 19.022C37.4822 19.022 38.623 19.5663 39.5305 20.6289C40.438 21.7434 40.9047 23.1689 40.9047 24.9054ZM38.286 25.009C38.286 23.8946 38.0267 22.9615 37.534 22.2358C36.9895 21.4842 36.2376 21.0954 35.3042 21.0954C34.6819 21.0954 34.1115 21.3028 33.5929 21.7174C33.0744 22.1321 32.7373 22.6764 32.5817 23.3762C32.5039 23.6872 32.4521 23.9464 32.4521 24.1537V26.0717C32.4521 26.901 32.7114 27.6267 33.2299 28.1969C33.7485 28.7671 34.4226 29.0522 35.2264 29.0522C36.1858 29.0522 36.9377 28.6894 37.4822 27.9377C38.0267 27.212 38.286 26.2272 38.286 25.009ZM55.7098 26.3308C55.7098 27.6786 55.2431 28.793 54.2837 29.6483C53.2466 30.5814 51.7946 31.0479 49.9278 31.0479C48.2165 31.0479 46.8423 30.711 45.7792 30.063L46.3756 27.9377C47.4905 28.6116 48.7351 28.9226 50.0833 28.9226C51.0427 28.9226 51.7946 28.7153 52.3391 28.2747C52.8836 27.8341 53.1429 27.2639 53.1429 26.5382C53.1429 25.8902 52.9095 25.346 52.4687 24.9054C52.028 24.4647 51.302 24.0501 50.2648 23.6613C47.4646 22.6246 46.0644 21.0954 46.0644 19.0738C46.0644 17.752 46.5571 16.6894 47.5424 15.86C48.5276 15.0306 49.85 14.6159 51.4575 14.6159C52.9095 14.6159 54.1281 14.8751 55.0875 15.3676L54.4393 17.441C53.5318 16.9485 52.5206 16.7153 51.3797 16.7153C50.4723 16.7153 49.7722 16.9485 49.2536 17.3892C48.8388 17.7779 48.6054 18.2704 48.6054 18.8406C48.6054 19.4626 48.8388 20.0069 49.3314 20.3956C49.7463 20.7844 50.5241 21.1732 51.665 21.6397C53.0392 22.184 54.0504 22.8319 54.6986 23.5835C55.3986 24.3092 55.7098 25.2164 55.7098 26.3308ZM64.1883 21.225H61.3621V26.8233C61.3621 28.2488 61.8548 28.9485 62.866 28.9485C63.3327 28.9485 63.6957 28.9226 64.0068 28.819L64.0846 30.7628C63.592 30.9442 62.9178 31.0479 62.0881 31.0479C61.0769 31.0479 60.2991 30.7369 59.7287 30.1149C59.1582 29.4928 58.873 28.4561 58.873 27.0047V21.1991H57.1877V19.2812H58.873V17.1818L61.3881 16.4302V19.3071H64.2142L64.1883 21.225ZM76.8932 24.9572C76.8932 26.7196 76.3746 28.171 75.3634 29.3114C74.3004 30.4777 72.9002 31.0738 71.1371 31.0738C69.4518 31.0738 68.1035 30.5036 67.0923 29.3892C66.0811 28.2747 65.5884 26.8492 65.5884 25.1386C65.5884 23.3503 66.107 21.8989 67.1441 20.7585C68.1813 19.6181 69.5814 19.0479 71.3186 19.0479C73.0039 19.0479 74.3781 19.6181 75.3893 20.7326C76.4005 21.8211 76.8932 23.2466 76.8932 24.9572ZM74.2485 25.009C74.2485 23.9464 74.0151 23.0393 73.5744 22.2876C73.0299 21.3805 72.2779 20.914 71.2667 20.914C70.2296 20.914 69.4518 21.3805 68.9073 22.2876C68.4406 23.0393 68.2331 23.9723 68.2331 25.0609C68.2331 26.1235 68.4665 27.0306 68.9073 27.7822C69.4518 28.6894 70.2296 29.1559 71.2408 29.1559C72.2261 29.1559 72.978 28.6894 73.5484 27.7563C74.0151 26.9788 74.2485 26.0717 74.2485 25.009ZM85.2162 21.536C84.9569 21.4842 84.6717 21.4583 84.4124 21.4583C83.5049 21.4583 82.8048 21.7952 82.3381 22.4691C81.9233 23.0652 81.6899 23.8168 81.6899 24.7498V30.7887H79.123V22.9097C79.123 21.6915 79.0971 20.4993 79.0452 19.2812H81.2751L81.3788 21.4842H81.4566C81.7158 20.7326 82.1566 20.1105 82.727 19.6699C83.2715 19.2812 83.9198 19.0479 84.568 19.0479C84.8013 19.0479 85.0087 19.0738 85.2162 19.0997V21.536ZM96.6765 24.5166C96.6765 24.9054 96.6505 25.2941 96.5728 25.6829H88.898C88.9239 26.8233 89.2869 27.7045 90.0129 28.3006C90.6611 28.8449 91.4908 29.1041 92.5279 29.1041C93.6688 29.1041 94.7059 28.9226 95.6393 28.5598L96.0283 30.3222C94.9393 30.7887 93.6429 31.022 92.1649 31.022C90.3759 31.022 88.9758 30.5036 87.9646 29.441C86.9534 28.3784 86.4348 26.9788 86.4348 25.2164C86.4348 23.4799 86.9015 22.0285 87.8609 20.8881C88.8461 19.644 90.1944 19.0479 91.8797 19.0479C93.5391 19.0479 94.8096 19.6699 95.6393 20.8881C96.3394 21.873 96.6765 23.0652 96.6765 24.5166ZM94.2392 23.8427C94.2651 23.0911 94.0836 22.4172 93.7466 21.873C93.3058 21.1473 92.6317 20.8103 91.6982 20.8103C90.8685 20.8103 90.1685 21.1473 89.6499 21.847C89.235 22.3913 88.9758 23.0652 88.898 23.8427H94.2392ZM4.29397 9.19909C3.5939 9.19909 2.97163 9.17317 2.45306 9.09542V1.37187C3.17905 1.2682 3.90504 1.21637 4.63104 1.21637C7.56093 1.21637 8.9092 2.66777 8.9092 5.0263C8.9092 7.72177 7.30165 9.19909 4.29397 9.19909ZM4.70882 2.20125C4.3199 2.20125 3.98283 2.22717 3.69762 2.279V8.13645C3.85319 8.16237 4.1384 8.16237 4.55325 8.16237C6.47194 8.16237 7.56093 7.07382 7.56093 5.0263C7.56093 3.21205 6.57566 2.20125 4.70882 2.20125ZM13.1096 9.25092C11.4502 9.25092 10.3871 8.00686 10.3871 6.34812C10.3871 4.61162 11.4761 3.36755 13.2133 3.36755C14.8468 3.36755 15.9358 4.53386 15.9358 6.27036C15.9358 8.00686 14.7949 9.25092 13.1096 9.25092ZM13.1614 4.27468C12.254 4.27468 11.6576 5.12997 11.6576 6.3222C11.6576 7.48851 12.254 8.3438 13.1355 8.3438C14.0171 8.3438 14.6134 7.43667 14.6134 6.29628C14.6394 5.12997 14.043 4.27468 13.1614 4.27468ZM25.3737 3.47123L23.6105 9.12133H22.4438L21.7178 6.65913C21.5363 6.06302 21.3807 5.44099 21.2511 4.81896H21.2251C21.1214 5.44099 20.9659 6.06302 20.7584 6.65913L19.9806 9.12133H18.8138L17.1544 3.47123H18.4508L19.099 6.16669C19.2546 6.81464 19.3842 7.41075 19.4879 7.98095H19.5139C19.6176 7.51442 19.7472 6.91831 19.9806 6.16669L20.7844 3.47123H21.8215L22.5993 6.11485C22.7808 6.7628 22.9364 7.38483 23.066 7.98095H23.092C23.1698 7.41075 23.2994 6.78872 23.4809 6.11485L24.181 3.47123H25.3737ZM31.8817 9.12133H30.6371V5.88159C30.6371 4.87079 30.2482 4.37835 29.4963 4.37835C28.7443 4.37835 28.2258 5.0263 28.2258 5.752V9.12133H26.9553V5.07814C26.9553 4.5857 26.9553 4.04142 26.9034 3.47123H28.0184L28.0702 4.35244H28.0961C28.4332 3.75632 29.1333 3.36755 29.8852 3.36755C31.0779 3.36755 31.8557 4.27468 31.8557 5.752L31.8817 9.12133ZM35.3561 9.12133H34.0856V0.853516H35.3561V9.12133ZM39.9454 9.25092C38.286 9.25092 37.2229 8.00686 37.2229 6.34812C37.2229 4.61162 38.3119 3.36755 40.0491 3.36755C41.6826 3.36755 42.7716 4.53386 42.7716 6.27036C42.7716 8.00686 41.6307 9.25092 39.9454 9.25092ZM39.9972 4.27468C39.0897 4.27468 38.4934 5.12997 38.4934 6.3222C38.4934 7.48851 39.0897 8.3438 39.9713 8.3438C40.8529 8.3438 41.4492 7.43667 41.4492 6.29628C41.4492 5.12997 40.8788 4.27468 39.9972 4.27468ZM47.7239 9.12133L47.6201 8.47339H47.5942C47.2053 8.99175 46.6608 9.25092 45.9348 9.25092C44.9236 9.25092 44.1976 8.55114 44.1976 7.59218C44.1976 6.19261 45.4162 5.46691 47.5164 5.46691V5.36324C47.5164 4.61162 47.1275 4.24876 46.3497 4.24876C45.7792 4.24876 45.3125 4.37835 44.8717 4.66345L44.6125 3.83408C45.131 3.49714 45.7792 3.34164 46.5571 3.34164C48.035 3.34164 48.7869 4.11917 48.7869 5.67425V7.74768C48.7869 8.31788 48.8128 8.75848 48.8647 9.09542L47.7239 9.12133ZM47.5424 6.29628C46.1422 6.29628 45.4422 6.63321 45.4422 7.43667C45.4422 8.03278 45.8052 8.31788 46.2978 8.31788C46.946 8.31788 47.5424 7.82544 47.5424 7.17749V6.29628ZM54.8801 9.12133L54.8282 8.21421H54.8023C54.4393 8.88807 53.8429 9.25092 52.9873 9.25092C51.6131 9.25092 50.6019 8.0587 50.6019 6.37403C50.6019 4.61161 51.639 3.36755 53.091 3.36755C53.8429 3.36755 54.3874 3.62673 54.6986 4.14509H54.7245V0.853516H55.995V7.59218C55.995 8.13645 56.0209 8.65481 56.0468 9.12133H54.8801ZM54.6986 5.80384C54.6986 5.00038 54.18 4.32652 53.3762 4.32652C52.4428 4.32652 51.8724 5.15589 51.8724 6.3222C51.8724 7.46259 52.4687 8.24012 53.3503 8.24012C54.1541 8.24012 54.6986 7.54034 54.6986 6.73689V5.80384ZM63.955 9.25092C62.2956 9.25092 61.2325 8.00686 61.2325 6.34812C61.2325 4.61162 62.3215 3.36755 64.0587 3.36755C65.6922 3.36755 66.7811 4.53386 66.7811 6.27036C66.7811 8.00686 65.6403 9.25092 63.955 9.25092ZM64.0068 4.27468C63.0993 4.27468 62.5289 5.12997 62.5289 6.3222C62.5289 7.48851 63.1253 8.3438 64.0068 8.3438C64.8884 8.3438 65.4847 7.43667 65.4847 6.29628C65.4588 5.12997 64.8884 4.27468 64.0068 4.27468ZM73.5484 9.12133H72.2779V5.88159C72.2779 4.87079 71.889 4.37835 71.1371 4.37835C70.3852 4.37835 69.8925 5.0263 69.8925 5.752V9.12133H68.6221V5.07814C68.6221 4.5857 68.6221 4.04142 68.5702 3.47123H69.6851L69.737 4.35244H69.7629C70.1 3.75632 70.8 3.36755 71.552 3.36755C72.7447 3.36755 73.5225 4.27468 73.5225 5.752V9.12133H73.5484ZM82.0011 4.40427H80.6269V7.15157C80.6269 7.85136 80.8602 8.18829 81.3529 8.18829C81.5862 8.18829 81.7677 8.16237 81.9233 8.13645L81.9492 9.09542C81.7158 9.19909 81.3788 9.22501 80.9639 9.22501C79.9787 9.22501 79.3823 8.68073 79.3823 7.25524V4.40427H78.5526V3.47123H79.3823V2.43451L80.6269 2.07166V3.47123H82.0011V4.40427ZM88.6646 9.12133H87.4201V5.90751C87.4201 4.89671 87.0311 4.37835 86.2792 4.37835C85.631 4.37835 85.0087 4.81896 85.0087 5.72609V9.14725H83.7642V0.853516H85.0087V4.24876H85.0347C85.4236 3.62673 85.994 3.31572 86.7459 3.31572C87.9386 3.31572 88.6646 4.24876 88.6646 5.72609V9.12133ZM95.4838 6.6073H91.6982C91.7242 7.66993 92.4242 8.29196 93.4873 8.29196C94.0577 8.29196 94.5503 8.18829 95.0171 8.03278L95.2245 8.91399C94.68 9.14725 94.0577 9.25092 93.3317 9.25092C91.5686 9.25092 90.5055 8.13645 90.5055 6.39995C90.5055 4.66345 91.5686 3.36755 93.1762 3.36755C94.6281 3.36755 95.5356 4.43019 95.5356 6.06302C95.5356 6.21853 95.5356 6.39995 95.4838 6.6073ZM94.3429 5.70017C94.3429 4.81896 93.9021 4.19693 93.0984 4.19693C92.3724 4.19693 91.8019 4.81896 91.7242 5.70017H94.3429Z" fill="white"/>
</svg>
