<svg width="32" height="32" viewBox="0 0 32 32" fill="none" xmlns="http://www.w3.org/2000/svg">
<circle cx="16" cy="16" r="16" fill="white"/>
<path fill-rule="evenodd" clip-rule="evenodd" d="M15.9993 21.2715C12.9332 19.5252 11.2232 17.7896 10.3963 16.2836C9.54992 14.7423 9.62377 13.4441 10.0934 12.5227C11.0587 10.6289 13.8038 10.0233 15.4763 12.1386L15.9992 12.8L16.5222 12.1387C18.195 10.0233 20.9402 10.629 21.9055 12.5227C22.3751 13.4441 22.4489 14.7423 21.6025 16.2836C20.7756 17.7895 19.0654 19.5252 15.9993 21.2715ZM15.9993 10.7373C13.6465 8.50152 10.1755 9.42555 8.90549 11.9172C8.20846 13.2847 8.19894 15.0521 9.22753 16.9254C10.247 18.782 12.2796 20.7417 15.6768 22.6194L15.9992 22.7976L16.3217 22.6194C19.719 20.7417 21.7517 18.782 22.7712 16.9254C23.7999 15.0521 23.7904 13.2847 23.0934 11.9172C21.8233 9.4255 18.3523 8.50155 15.9993 10.7373Z" fill="#787A80"/>
</svg>
